<svg width="27" height="23" viewBox="0 0 27 23" fill="none" xmlns="http://www.w3.org/2000/svg">
<path d="M18.5625 6.64844C18.334 6.64844 18.1362 6.57731 17.9692 6.43506C17.8022 6.29281 17.7188 6.12435 17.7188 5.92969C17.7188 5.54785 17.8022 5.18099 17.9692 4.8291C18.1362 4.47721 18.3823 4.1665 18.7075 3.89697L19.749 2.99854C20.083 2.71403 20.25 2.37337 20.25 1.97656C20.25 1.7819 20.3335 1.61344 20.5005 1.47119C20.6675 1.32894 20.8652 1.25781 21.0938 1.25781C21.3223 1.25781 21.52 1.32894 21.687 1.47119C21.854 1.61344 21.9375 1.7819 21.9375 1.97656C21.9375 2.3584 21.854 2.72526 21.687 3.07715C21.52 3.42904 21.2739 3.73975 20.9487 4.00928L19.9072 4.90771C19.5732 5.19222 19.4062 5.53288 19.4062 5.92969C19.4062 6.12435 19.3228 6.29281 19.1558 6.43506C18.9888 6.57731 18.791 6.64844 18.5625 6.64844ZM13.5 6.64844C13.2715 6.64844 13.0737 6.57731 12.9067 6.43506C12.7397 6.29281 12.6562 6.12435 12.6562 5.92969C12.6562 5.54785 12.7397 5.18099 12.9067 4.8291C13.0737 4.47721 13.3198 4.1665 13.645 3.89697L14.6865 2.99854C15.0205 2.71403 15.1875 2.37337 15.1875 1.97656C15.1875 1.7819 15.271 1.61344 15.438 1.47119C15.605 1.32894 15.8027 1.25781 16.0312 1.25781C16.2598 1.25781 16.4575 1.32894 16.6245 1.47119C16.7915 1.61344 16.875 1.7819 16.875 1.97656C16.875 2.3584 16.7915 2.72526 16.6245 3.07715C16.4575 3.42904 16.2114 3.73975 15.8862 4.00928L14.8447 4.90771C14.5107 5.19222 14.3438 5.53288 14.3438 5.92969C14.3438 6.12435 14.2603 6.29281 14.0933 6.43506C13.9263 6.57731 13.7285 6.64844 13.5 6.64844ZM24.4688 8.625C24.8203 8.625 25.1499 8.68115 25.4575 8.79346C25.7651 8.90576 26.0332 9.05924 26.2617 9.25391C26.4902 9.44857 26.6704 9.67692 26.8022 9.93896C26.9341 10.201 27 10.4818 27 10.7812V15.0938C27 15.3932 26.9341 15.674 26.8022 15.936C26.6704 16.1981 26.4902 16.4264 26.2617 16.6211C26.0332 16.8158 25.7651 16.9692 25.4575 17.0815C25.1499 17.1938 24.8203 17.25 24.4688 17.25H23.7173C23.6997 17.3024 23.6865 17.3511 23.6777 17.396C23.6689 17.4409 23.6514 17.4858 23.625 17.5308V17.9688C23.625 18.4629 23.5151 18.9271 23.2954 19.3613C23.0757 19.7956 22.7725 20.1774 22.3857 20.5068C21.999 20.8363 21.5508 21.0946 21.041 21.2817C20.5312 21.4689 19.9863 21.5625 19.4062 21.5625H14.3438C13.6582 21.5625 13.0254 21.4315 12.4453 21.1694C11.8652 20.9074 11.3818 20.5592 10.9951 20.125H4.40332C3.82324 20.125 3.27832 20.0314 2.76855 19.8442C2.25879 19.6571 1.81055 19.4025 1.42383 19.0806C1.03711 18.7586 0.733887 18.3768 0.51416 17.9351C0.294434 17.4933 0.18457 17.0254 0.18457 16.5312V15.8125H3.55957C3.55957 15.221 3.69141 14.6632 3.95508 14.1392C4.21875 13.6151 4.5835 13.1584 5.04932 12.769C5.51514 12.3797 6.05127 12.069 6.65771 11.8369C7.26416 11.6048 7.91895 11.4925 8.62207 11.5C8.88574 11.5 9.14062 11.5187 9.38672 11.5562C9.63281 11.5936 9.87891 11.646 10.125 11.7134V7.1875H23.625V8.625H24.4688ZM8.62207 12.9375C8.15625 12.9375 7.72119 13.0124 7.31689 13.1621C6.9126 13.3118 6.55225 13.5177 6.23584 13.7798C5.91943 14.0418 5.67773 14.3451 5.51074 14.6895C5.34375 15.0339 5.25586 15.4082 5.24707 15.8125H10.125V13.252C9.89648 13.1546 9.65918 13.0798 9.41309 13.0273C9.16699 12.9749 8.90332 12.945 8.62207 12.9375ZM4.40332 18.6875H10.2173C10.1558 18.4704 10.125 18.2308 10.125 17.9688V17.25H2.01709C2.10498 17.4596 2.22803 17.6506 2.38623 17.8228C2.54443 17.995 2.72461 18.1484 2.92676 18.2832C3.12891 18.418 3.35742 18.5153 3.6123 18.5752C3.86719 18.6351 4.13086 18.6725 4.40332 18.6875ZM10.5073 19.4399V19.4512L10.5205 19.4736V19.4624L10.5073 19.4399ZM21.9375 17.9688V8.625H11.8125V17.9688C11.8125 18.2682 11.8784 18.549 12.0103 18.811C12.1421 19.0731 12.3223 19.3014 12.5508 19.4961C12.7793 19.6908 13.0474 19.8442 13.355 19.9565C13.6626 20.0688 13.9922 20.125 14.3438 20.125H19.4062C19.7578 20.125 20.0874 20.0688 20.395 19.9565C20.7026 19.8442 20.9707 19.6908 21.1992 19.4961C21.4277 19.3014 21.6079 19.0731 21.7397 18.811C21.8716 18.549 21.9375 18.2682 21.9375 17.9688ZM25.3125 15.0938V10.7812C25.3125 10.5866 25.229 10.4181 25.062 10.2759C24.895 10.1336 24.6973 10.0625 24.4688 10.0625H23.625V15.8125H24.4688C24.6973 15.8125 24.895 15.7414 25.062 15.5991C25.229 15.4569 25.3125 15.2884 25.3125 15.0938Z" fill="black"/>
</svg>
